# xmcd
#
# Track frame offsets:
#	150
#	14513
#	29901
#	40733
#	61975
#	75437
#	89509
#	111693
#	121745
#	136130
#	157189
#	168967
#	181257
#	196059
#	205494
#
# Disc length: 2918 seconds
#
# Revision: 0
# Processed by: cddbd v1.5PL3 Copyright (c) Steve Scherf et al.
# Submitted via: EasyCDDAExtractor 4.6.0.1
#
DISCID=ce0b640f
DTITLE=Big Bill Broonzy - Absolutely The Best
DYEAR=2000
DGENRE=Blues
TTITLE0=Baby Please Don't Go
TTITLE1=In The Evenin' (When The Sun Goes Down)
TTITLE2=St. Louis Blues
TTITLE3=Feelin' Lowdown
TTITLE4=See See Rider
TTITLE5=All I Go Belongs To You
TTITLE6=Ridin' On Down
TTITLE7=Sixteen Tons
TTITLE8=Treat Everybody Right
TTITLE9=I Got Up One Mornin' Blues
TTITLE10=Down By The Riverside
TTITLE11=Black, Brown and White
TTITLE12=This Train
TTITLE13=Midnight Special
TTITLE14=I Gets The Blues When It Rains
EXTD=
EXTT0=
EXTT1=
EXTT2=
EXTT3=
EXTT4=
EXTT5=
EXTT6=
EXTT7=
EXTT8=
EXTT9=
EXTT10=
EXTT11=
EXTT12=
EXTT13=
EXTT14=
PLAYORDER=
